<?xml version="1.0" standalone="no"?>
<!DOCTYPE svg PUBLIC "-//W3C//DTD SVG 20010904//EN"
 "http://www.w3.org/TR/2001/REC-SVG-20010904/DTD/svg10.dtd">
<svg version="1.0" xmlns="http://www.w3.org/2000/svg"
 width="980.000000pt" height="980.000000pt" viewBox="0 0 980.000000 980.000000"
 preserveAspectRatio="xMidYMid meet">
<metadata>
Created by potrace 1.16, written by Peter Selinger 2001-2019
</metadata>
<g transform="translate(0.000000,980.000000) scale(0.100000,-0.100000)"
fill="#000000" stroke="none">
<path d="M4640 9793 c-381 -26 -614 -62 -940 -143 -590 -147 -1173 -420 -1675
-785 -407 -296 -814 -705 -1103 -1108 -734 -1024 -1044 -2266 -877 -3512 53
-394 154 -783 300 -1150 59 -150 222 -486 305 -630 413 -720 1014 -1332 1732
-1767 158 -95 545 -287 713 -353 782 -309 1628 -412 2460 -300 941 127 1802
515 2540 1143 136 116 429 412 546 552 280 334 479 643 670 1035 111 230 170
374 244 600 356 1082 321 2267 -100 3330 -59 151 -221 485 -305 630 -331 576
-800 1102 -1335 1501 -848 630 -1889 971 -2940 962 -104 -1 -210 -3 -235 -5z
m685 -1038 c192 -22 344 -50 524 -95 1219 -307 2222 -1199 2675 -2383 298
-777 334 -1649 101 -2452 -382 -1319 -1456 -2355 -2780 -2684 -532 -133 -1108
-152 -1633 -55 -834 153 -1567 555 -2149 1176 -1024 1095 -1322 2690 -761
4083 388 962 1147 1731 2108 2136 378 159 836 265 1265 293 121 8 524 -4 650
-19z"/>
<path d="M4802 7880 c-308 -42 -559 -263 -645 -569 -21 -74 -21 -93 -25 -858
l-3 -782 -782 -3 c-766 -4 -784 -4 -859 -25 -278 -79 -479 -283 -553 -563 -21
-79 -24 -250 -6 -335 28 -130 102 -272 193 -371 86 -93 231 -179 367 -217 74
-21 93 -21 858 -25 l782 -3 3 -782 c4 -769 4 -783 25 -860 76 -269 286 -478
550 -548 93 -25 258 -30 348 -10 130 28 272 102 371 193 93 86 179 231 217
367 21 74 21 93 25 858 l3 782 782 3 c765 4 784 4 858 25 272 77 479 284 550
550 29 108 29 278 0 386 -71 265 -279 474 -548 549 -77 22 -92 22 -860 26
l-782 3 -3 782 c-4 765 -4 784 -25 858 -92 326 -365 550 -698 572 -44 3 -108
1 -143 -3z"/>
</g>
</svg>
