<?xml version="1.0" standalone="no"?>
<!DOCTYPE svg PUBLIC "-//W3C//DTD SVG 20010904//EN"
 "http://www.w3.org/TR/2001/REC-SVG-20010904/DTD/svg10.dtd">
<svg version="1.0" xmlns="http://www.w3.org/2000/svg"
 width="4166.000000pt" height="4166.000000pt" viewBox="0 0 4166.000000 4166.000000"
 preserveAspectRatio="xMidYMid meet">
<metadata>
Created by potrace 1.16, written by Peter Selinger 2001-2019
</metadata>
<g transform="translate(0.000000,4166.000000) scale(0.100000,-0.100000)"
fill="#000000" stroke="none">
<path d="M19930 41649 c-2663 -111 -5024 -627 -7285 -1589 -803 -342 -1659
-780 -2422 -1242 -2145 -1295 -4180 -3096 -5830 -5160 -1354 -1693 -2391
-3512 -3129 -5484 -105 -283 -302 -864 -388 -1151 -461 -1528 -740 -3121 -841
-4813 -30 -515 -37 -864 -32 -1588 5 -702 15 -969 52 -1487 324 -4433 1913
-8308 4794 -11690 699 -821 1548 -1680 2382 -2411 1952 -1712 4098 -2993 6424
-3836 1724 -625 3563 -1008 5505 -1147 587 -43 711 -46 1680 -46 945 0 1026 2
1600 41 3974 266 7571 1591 10702 3940 1687 1265 3267 2845 4532 4532 2349
3131 3674 6728 3940 10702 39 574 41 655 41 1600 0 969 -3 1093 -46 1680 -151
2112 -584 4072 -1314 5950 -336 865 -791 1812 -1262 2630 -737 1280 -1647
2520 -2691 3669 -521 573 -1195 1239 -1782 1762 -3318 2954 -7188 4645 -11563
5054 -318 30 -591 50 -962 71 -325 19 -1764 28 -2105 13z m6028 -13578 l5042
-3913 0 -7279 0 -7279 -3495 0 -3495 0 0 4395 0 4395 -3180 0 -3180 0 0 -4395
0 -4395 -3490 0 -3490 0 0 7283 1 7282 5081 3942 5081 3943 41 -33 c23 -18
2310 -1794 5084 -3946z"/>
</g>
</svg>
