<?xml version="1.0" standalone="no"?>
<!DOCTYPE svg PUBLIC "-//W3C//DTD SVG 20010904//EN"
 "http://www.w3.org/TR/2001/REC-SVG-20010904/DTD/svg10.dtd">
<svg version="1.0" xmlns="http://www.w3.org/2000/svg"
 width="2000.000000pt" height="2000.000000pt" viewBox="0 0 2000.000000 2000.000000"
 preserveAspectRatio="xMidYMid meet">
<metadata>
Created by potrace 1.16, written by Peter Selinger 2001-2019
</metadata>
<g transform="translate(0.000000,2000.000000) scale(0.100000,-0.100000)"
fill="#000000" stroke="none">
<path d="M9500 19994 c-25 -2 -121 -8 -215 -14 -2105 -136 -4168 -980 -5790
-2369 -466 -400 -964 -915 -1337 -1386 -773 -975 -1364 -2097 -1721 -3265
-221 -724 -347 -1383 -413 -2165 -21 -256 -30 -1025 -15 -1307 96 -1766 631
-3421 1583 -4897 601 -930 1381 -1781 2263 -2467 1407 -1095 3084 -1794 4845
-2018 1164 -149 2351 -95 3485 160 2144 481 4068 1661 5487 3364 1127 1353
1874 2981 2168 4728 92 550 133 1053 133 1652 0 858 -91 1616 -293 2429 -343
1383 -1004 2715 -1899 3826 -745 925 -1638 1706 -2646 2312 -1402 844 -2950
1319 -4599 1413 -157 9 -916 11 -1036 4z m-3144 -1482 c45 -36 56 -90 29 -142
-11 -22 -38 -40 -108 -72 -799 -369 -1462 -783 -2092 -1308 -411 -342 -850
-783 -1209 -1215 -340 -408 -719 -971 -966 -1435 -152 -285 -149 -280 -185
-297 -45 -22 -97 -11 -129 28 -51 60 -39 93 157 444 957 1718 2395 3064 4177
3912 231 109 281 122 326 85z m-90 -590 c45 -36 56 -90 29 -142 -11 -22 -50
-46 -167 -106 -530 -268 -1073 -618 -1523 -982 -457 -371 -926 -840 -1297
-1297 -266 -329 -543 -733 -757 -1107 -89 -154 -107 -173 -168 -173 -38 0 -49
5 -74 33 -50 55 -43 90 53 255 647 1119 1533 2085 2590 2824 322 226 609 400
983 597 187 99 227 116 265 116 28 0 53 -7 66 -18z m304 -349 c35 -20 53 -53
53 -93 0 -63 -16 -76 -247 -192 -1062 -533 -1944 -1239 -2698 -2159 -264 -323
-565 -767 -786 -1159 -52 -92 -91 -117 -158 -99 -40 12 -74 58 -74 103 0 32
49 127 166 322 770 1281 1866 2332 3184 3052 239 131 469 241 503 241 16 1 42
-7 57 -16z m-110 -558 c57 -30 77 -110 40 -158 -11 -14 -84 -60 -163 -103
-880 -479 -1650 -1117 -2292 -1899 -282 -343 -573 -776 -798 -1191 -43 -78
-86 -149 -96 -158 -11 -10 -37 -20 -58 -22 -54 -7 -98 23 -114 76 -12 40 -11
45 28 123 22 45 83 156 135 247 531 926 1259 1749 2113 2390 293 219 582 408
875 572 267 149 274 152 330 123z m413 -305 c14 -11 31 -36 37 -55 10 -30 9
-41 -7 -73 -16 -33 -36 -46 -178 -120 -723 -377 -1288 -787 -1831 -1327 -489
-488 -844 -953 -1213 -1592 -58 -101 -110 -125 -179 -83 -60 37 -67 96 -20
179 78 139 200 338 292 476 717 1077 1643 1909 2801 2518 199 105 247 117 298
77z m-254 -654 c33 -17 51 -54 51 -102 0 -51 -33 -79 -252 -212 -428 -263
-823 -577 -1203 -957 -514 -513 -906 -1052 -1246 -1711 -105 -202 -115 -214
-182 -214 -18 0 -43 7 -55 16 -26 18 -52 64 -52 92 0 27 131 290 237 476 575
1011 1375 1849 2368 2477 237 151 274 166 334 135z m517 -340 c28 -28 34 -42
34 -76 0 -58 -31 -84 -218 -186 -641 -350 -1266 -870 -1767 -1469 -174 -208
-407 -537 -549 -777 -78 -131 -107 -156 -169 -144 -48 9 -87 55 -87 105 0 45
55 144 214 386 486 738 1106 1358 1848 1849 95 62 232 147 303 189 304 175
331 183 391 123z m359 -362 c33 -16 65 -65 65 -101 0 -49 -37 -79 -193 -161
-516 -269 -951 -583 -1361 -982 -307 -299 -545 -585 -784 -942 -40 -59 -81
-112 -91 -118 -11 -5 -38 -10 -61 -10 -60 0 -100 41 -100 104 0 41 9 59 86
173 557 827 1334 1522 2196 1965 190 97 191 97 243 72z m30 -584 c35 -35 40
-90 13 -132 -9 -14 -70 -56 -135 -93 -701 -401 -1308 -966 -1752 -1632 -100
-151 -138 -176 -211 -138 -39 20 -64 69 -57 111 10 59 237 379 453 639 139
167 472 500 639 639 162 135 354 279 510 383 133 89 401 248 431 256 36 10 79
-3 109 -33z m214 -384 c21 -21 26 -36 26 -75 0 -56 -18 -82 -80 -113 -117 -60
-412 -250 -560 -361 -331 -249 -711 -629 -963 -963 -87 -116 -253 -370 -324
-497 -70 -123 -94 -147 -150 -147 -32 0 -47 7 -75 35 -32 32 -35 40 -31 78 13
111 344 608 626 937 365 426 894 856 1367 1109 72 39 123 38 164 -3z m534
-276 c14 -11 31 -36 37 -55 10 -30 9 -41 -7 -73 -16 -34 -37 -47 -233 -147
-457 -235 -765 -458 -1115 -810 -242 -242 -451 -506 -606 -763 -35 -57 -76
-114 -92 -128 -49 -41 -122 -28 -157 28 -31 49 -21 84 60 216 333 540 797
1020 1336 1379 175 116 278 177 479 280 199 102 247 113 298 73z m-20 -520
c19 -21 27 -41 27 -66 0 -64 -20 -85 -146 -154 -153 -84 -409 -255 -549 -366
-134 -107 -472 -444 -577 -574 -141 -177 -289 -399 -391 -587 -61 -112 -80
-128 -156 -124 -36 2 -91 63 -91 101 0 35 50 134 156 308 369 604 930 1135
1539 1456 105 56 142 57 188 6z m2157 -155 c383 -50 725 -151 1057 -310 692
-332 1245 -870 1586 -1542 189 -374 295 -712 352 -1128 22 -158 31 -550 16
-726 -129 -1529 -1248 -2788 -2750 -3094 -253 -51 -345 -59 -686 -59 -335 -1
-412 6 -665 55 -1352 263 -2429 1328 -2709 2682 -54 261 -66 384 -66 697 0
299 7 389 51 630 190 1050 884 1974 1843 2454 403 202 821 318 1301 360 108 9
551 -3 670 -19z m3278 -4829 c39 -20 56 -56 50 -110 -6 -53 -153 -359 -259
-540 -220 -372 -507 -716 -839 -1006 -281 -245 -764 -556 -882 -568 -44 -4
-50 -2 -83 31 -64 64 -42 135 59 188 492 259 898 590 1238 1009 205 254 407
588 533 883 21 49 49 96 63 107 29 23 82 26 120 6z m273 -525 c27 -28 34 -49
29 -96 -3 -39 -148 -294 -272 -478 -358 -534 -875 -1026 -1412 -1344 -98 -58
-125 -63 -174 -33 -39 24 -56 62 -48 109 7 47 21 59 176 156 252 156 476 333
699 550 320 311 567 634 781 1023 34 61 71 119 83 127 12 8 41 15 65 15 35 0
49 -6 73 -29z m498 -77 c13 -9 30 -32 37 -51 20 -47 9 -80 -85 -256 -263 -487
-530 -848 -905 -1222 -258 -257 -546 -489 -836 -673 -144 -92 -181 -104 -229
-76 -46 27 -66 77 -52 125 13 43 6 37 196 161 710 460 1289 1107 1668 1865 31
61 67 119 79 127 29 21 97 20 127 0z m1990 -358 c30 -16 51 -54 51 -93 0 -58
-204 -521 -349 -793 -536 -1005 -1282 -1843 -2218 -2493 -192 -133 -285 -187
-324 -187 -49 0 -96 39 -105 86 -12 67 6 87 190 208 991 655 1783 1543 2315
2596 100 197 241 512 270 602 25 75 102 109 170 74z m-1710 -50 c32 -17 51
-54 51 -100 0 -49 -172 -344 -343 -588 -394 -562 -899 -1054 -1465 -1430 -140
-92 -167 -101 -220 -74 -50 26 -71 98 -43 149 7 13 69 61 139 108 311 206 534
390 812 669 388 387 567 626 915 1218 35 60 94 79 154 48z m2534 -337 c36 -16
60 -64 54 -108 -6 -47 -134 -346 -251 -586 -615 -1264 -1575 -2359 -2746
-3130 -303 -199 -570 -355 -620 -362 -96 -12 -158 106 -92 176 15 17 92 67
172 112 784 446 1509 1057 2107 1776 384 461 769 1067 1022 1610 71 153 182
408 195 450 18 58 99 89 159 62z m-1587 -93 c61 -61 49 -100 -123 -394 -536
-918 -1288 -1690 -2194 -2252 -136 -85 -171 -90 -225 -36 -24 24 -34 43 -34
64 0 58 17 81 96 130 992 617 1716 1379 2274 2395 57 104 81 126 139 127 25 0
42 -9 67 -34z m1107 -6 c40 -45 36 -84 -25 -219 -298 -665 -739 -1337 -1254
-1911 -151 -169 -499 -509 -664 -651 -421 -360 -835 -646 -1313 -908 -186
-102 -219 -113 -266 -85 -74 44 -76 142 -3 188 20 13 97 56 170 95 623 336
1210 782 1722 1307 597 612 1056 1289 1433 2111 43 95 69 116 132 109 29 -3
48 -14 68 -36z m-1764 -76 c31 -22 53 -77 45 -112 -4 -15 -42 -82 -84 -149
-455 -714 -1095 -1354 -1813 -1813 -156 -100 -402 -241 -446 -256 -73 -25
-146 25 -146 100 0 59 24 83 143 147 803 433 1519 1097 2044 1894 65 99 129
185 141 192 31 17 88 16 116 -3z m2508 -447 c14 -14 27 -40 30 -63 4 -35 -8
-65 -120 -289 -325 -646 -705 -1213 -1183 -1763 -166 -192 -621 -646 -799
-798 -580 -496 -1111 -852 -1743 -1168 -221 -111 -244 -116 -298 -62 -38 38
-44 77 -19 127 13 23 50 47 188 115 1601 802 2877 2079 3668 3670 105 212 125
244 159 257 30 13 93 -1 117 -26z m920 -227 c21 -13 36 -32 44 -58 11 -38 9
-46 -41 -158 -187 -424 -461 -915 -744 -1338 -692 -1034 -1571 -1910 -2601
-2591 -367 -243 -609 -383 -985 -571 -342 -170 -431 -208 -474 -200 -48 9 -86
56 -86 106 0 60 32 89 167 150 1354 610 2575 1590 3492 2800 381 504 730 1084
991 1650 52 113 91 185 110 203 36 33 81 35 127 7z m-609 -75 c42 -17 72 -59
72 -99 0 -29 -108 -250 -227 -465 -319 -577 -719 -1139 -1172 -1646 -156 -175
-483 -501 -660 -658 -594 -528 -1249 -975 -1922 -1312 -130 -66 -158 -76 -188
-71 -48 7 -91 55 -91 101 0 68 11 78 219 186 673 351 1209 715 1766 1199 168
146 639 617 785 785 487 560 855 1102 1201 1771 95 183 108 201 159 217 8 3
16 6 17 6 2 1 20 -6 41 -14z"/>
<path d="M9893 10359 c-62 -15 -161 -86 -200 -143 -92 -135 -79 -321 31 -443
19 -22 64 -55 98 -74 60 -32 68 -34 163 -34 84 0 107 4 147 24 71 35 130 92
169 163 32 59 34 69 34 158 0 82 -4 103 -27 152 -34 72 -104 143 -174 175 -62
28 -173 38 -241 22z"/>
</g>
</svg>
