<?xml version="1.0" standalone="no"?>
<!DOCTYPE svg PUBLIC "-//W3C//DTD SVG 20010904//EN"
 "http://www.w3.org/TR/2001/REC-SVG-20010904/DTD/svg10.dtd">
<svg version="1.0" xmlns="http://www.w3.org/2000/svg"
 width="1920.000000pt" height="1778.000000pt" viewBox="0 0 1920.000000 1778.000000"
 preserveAspectRatio="xMidYMid meet">
<metadata>
Created by potrace 1.16, written by Peter Selinger 2001-2019
</metadata>
<g transform="translate(0.000000,1778.000000) scale(0.100000,-0.100000)"
fill="#000000" stroke="none">
<path d="M4605 17765 c-1094 -101 -2085 -527 -2905 -1251 -901 -795 -1488
-1888 -1656 -3084 -56 -402 -60 -986 -9 -1495 137 -1358 649 -2586 1569 -3764
614 -787 1366 -1538 2816 -2811 612 -538 1183 -1042 1385 -1224 1602 -1442
2720 -2655 3654 -3963 83 -117 129 -173 141 -173 13 0 57 57 142 183 688 1014
1597 2081 2644 3103 641 625 971 928 2249 2064 1422 1263 2035 1859 2640 2565
1169 1363 1751 2636 1900 4155 22 222 31 828 16 1026 -89 1132 -514 2142
-1257 2984 -795 900 -1888 1488 -3084 1656 -301 42 -787 57 -1086 34 -1438
-114 -2735 -818 -3620 -1966 -176 -229 -373 -541 -490 -776 -27 -54 -51 -98
-54 -98 -3 0 -27 44 -54 98 -216 436 -557 903 -931 1277 -856 856 -1969 1369
-3179 1465 -174 14 -658 11 -831 -5z"/>
</g>
</svg>
