<svg xmlns="http://www.w3.org/2000/svg" height="334.9739990234375" width="967.9370727539062" style=""><rect id="backgroundrect" width="100%" height="100%" x="0" y="0" fill="none" stroke="none"/><g class="currentLayer" style=""><title>Layer 1</title><path d="M230.57402530631063,147.12595365285196 c-46.69945651451396,-31.770002720859416 -123.72916684885672,-34.69061349730333 -168.30981328090232,-19.19131111727424 c-7.160877431195892,2.4880928446652013 -14.730465931575822,-2.1402949201421078 -16.898580841437813,-10.341786148853323 c-2.16941240531972,-8.205950176461513 1.867095963669304,-16.872658287120284 9.03056838578065,-19.365210079535785 c51.177113339130194,-17.794174155514803 136.24740302500783,-14.357811755953307 190.00912731593044,22.19961453280731 c6.440767452157349,4.380173006707494 8.550495066421622,13.90597171725664 4.734560925246205,21.269180768912204 c-3.819826627548597,7.376585894906446 -12.143259988867976,9.809685050651328 -18.56716000007487,5.429512043943833 m-1.5284496492025295,47.053789292957546 c-3.27617603076094,6.090922626904416 -10.228156693262768,8.000838579947894 -15.53750810628208,4.2612677333662665 c-38.931351209101784,-27.413610768820163 -98.30085086832092,-35.35648302801421 -144.36193961763314,-19.339942708950772 c-5.972371591917863,2.0659791243038406 -12.282092002844774,-1.789524363785485 -14.095990652747268,-8.620632317239044 a11.310267905007175,12.95621584644358 0 0 1 7.5319611321058435,-16.135445592404672 c52.617333297207274,-18.292089987631197 118.03056679851927,-9.433647123709694 162.74745025362625,22.04652399338048 c5.3093514130193125,3.7455161102486896 6.980525562571824,11.71216942411098 3.716026990930428,17.78822889184774 m-17.727680438925436,45.18994913333378 a9.022783413034286,10.335840885186263 0 0 1 -12.415734034990669,3.442307663228557 c-34.02033090160469,-23.818212566164778 -76.84157349297233,-29.197189868938587 -127.27132944845172,-16.001677159895788 a9.024080908492014,10.33732720110303 0 0 1 -10.80943465832451,-7.776404876516326 a9.017593431203379,10.329895621519203 0 0 1 6.78979373028594,-12.38695685032245 c55.18637430350696,-14.449963342792758 102.52419858322264,-8.231217547046525 140.71078739958904,18.49868790006158 a9.03056838578065,10.344758780686854 0 0 1 2.997214507349612,14.224043323444425 M144.87315282797763,0 C64.86439292269343,0 0,74.3009326791 0,165.95609000235223 c0,91.66407521875283 64.86439292269343,165.96203526601926 144.87445032343535,165.96203526601926 c80.0139498871151,0 144.8770453143508,-74.29796004726647 144.8770453143508,-165.96203526601926 C289.75149563778615,74.30241899501677 224.88969770600815,0 144.87445032343535,0 m249.28131481582,153.20944470017255 c-25.014414929520857,-6.834080585287093 -29.466121844982553,-11.630422048688887 -29.466121844982553,-21.707643964357977 c0,-9.519853446882086 7.823897610094442,-15.924388732223989 19.45983687499112,-15.924388732223989 c11.27912801402172,0 22.462241364171643,4.864711995573 34.18900531110921,14.880994958654714 c0.35551375541722696,0.30320844702013205 0.799257201959897,0.42360003627812565 1.2378106666716582,0.3448252926895622 a1.60889436758161,1.8430317367890376 0 0 0 1.0808137162866784,-0.765452697134157 l12.213324743585238,-19.72341221547623 c0.5021307421403898,-0.8115284905538831 0.3658937190790436,-1.9322106917949586 -0.31139890985450536,-2.5520044290861112 c-13.95586114331274,-12.826906361684994 -29.671126127303435,-19.063487948432417 -48.03976932234606,-19.063487948432417 c-27.00866544804742,0 -45.874249403399524,18.56408580039926 -45.874249403399524,45.131982812579935 c0,28.488217176641516 16.274485526271075,38.572870671894435 44.39640207704834,46.361166075744876 c23.936196204149628,6.316842646252749 27.976597059511835,11.605154678103874 27.976597059511835,21.065555488315347 c0,10.481499845029267 -8.167733906392126,16.997508824128573 -21.313957884083152,16.997508824128573 c-14.60071638580311,0 -26.510427192280204,-5.633137324540687 -39.83311055222212,-18.8494584564182 a1.7243714633193226,1.9753138533811543 0 0 0 -1.2027782893130263,-0.4488674068631367 c-0.44114845562721605,0.0416168456694299 -0.8433720475226187,0.27645476051835577 -1.1236310663916729,0.6628968988773476 l-13.69506455630959,18.669614230489596 c-0.5747904877731074,0.7743705926347492 -0.5021307421403898,1.9322106917949586 0.1621869322158882,2.6010528543393674 c15.50117823346572,15.853045568219253 34.56527899385007,24.226949443275252 55.137069476113325,24.226949443275252 c29.105418107734415,0 47.91001977657334,-18.217774191792927 47.91001977657334,-46.4117008169149 c0,-23.828616777582138 -12.426113998652484,-37.00778001154052 -42.902984805204454,-45.49613021218745 m129.87670032756776,31.934983787620375 c0,20.120258565252584 -10.821112117444054,34.16148503093488 -26.313207882705687,34.16148503093488 c-15.314338887553019,0 -26.867238443155163,-14.678855993974624 -26.867238443155163,-34.16148503093488 c0,-19.48114272104348 11.55289955560214,-34.16148503093488 26.868535938612887,-34.16148503093488 c15.242976637378028,0 26.311910387247963,14.363757019620369 26.311910387247963,34.16148503093488 m-21.12711853817045,-60.19579462899679 c-12.615548335480641,0 -22.961777115396572,5.692589961211301 -31.494107245410014,17.35422464415226 V129.1757163260768 c0,-1.035962193985451 -0.734382429073542,-1.8801896347081717 -1.6387367631093335,-1.8801896347081717 H447.37643382430576 c-0.9056518294935194,0 -1.6374392676516065,0.8442274407227206 -1.6374392676516065,1.8801896347081717 v145.86109880768467 c0,1.035962193985451 0.7317874381580878,1.8801896347081717 1.6374392676516065,1.8801896347081717 h22.394771600369832 c0.9056518294935194,0 1.6400342585670606,-0.8442274407227206 1.6400342585670606,-1.8801896347081717 v-46.04160815364033 c8.53362762547117,10.971984097561833 18.88245139630256,16.331639293417695 31.494107245410014,16.331639293417695 c23.43925544384015,0 47.16785237475345,-20.67019545445576 47.16785237475345,-60.1824177857459 c0,-39.52114022679073 -23.728596930913294,-60.19579462899679 -47.16785237475345,-60.19579462899679 m107.99184444208466,94.56685020419557 c-16.056506289372923,0 -28.160841414509086,-14.776952844481137 -28.160841414509086,-34.37105557519879 c0,-19.677336422056506 11.685244092290308,-33.95488711850448 27.78975771359913,-33.95488711850448 c16.159008430533362,0 28.34638326496406,14.776952844481137 28.34638326496406,34.38443241844968 c0,19.672877474306212 -11.765688810669385,33.94151027525359 -27.975299564054108,33.94151027525359 m0,-94.56685020419557 c-30.18752931947882,0 -53.835681532013034,26.627349648851297 -53.835681532013034,60.62682624485874 c0,33.627897616816114 23.48596528031832,59.97433355739875 53.464597831103085,59.97433355739875 c30.293923947012445,0 54.016033400637106,-26.53668437792861 54.016033400637106,-60.40536517326069 c0,-33.754234469741164 -23.55862502595104,-60.19579462899679 -53.64494969972714,-60.19579462899679 m118.10711903052518,2.3468928325724923 H704.3583841817361 V98.42829895595196 c0,-1.035962193985451 -0.7291924472426333,-1.8801896347081717 -1.6348442767361526,-1.8801896347081717 h-22.394771600369832 c-0.9056518294935194,0 -1.6426292494825148,0.8442274407227206 -1.6426292494825148,1.8801896347081717 v28.86722773541668 h-10.769212299134972 c-0.9017593431203382,0 -1.6322492858206983,0.8442274407227206 -1.6322492858206983,1.8801896347081717 v22.049496625214008 c0,1.035962193985451 0.7304899427003602,1.8801896347081717 1.6322492858206983,1.8801896347081717 h10.769212299134972 v57.05669541278836 c0,23.057218816780917 10.017962429110977,34.75006613397394 29.776223259379332,34.75006613397394 c8.034091874246233,0 14.700623536048099,-1.900998057542886 20.98309654236274,-5.980935249063779 c0.5086182194290253,-0.3269895016883778 0.8265046065721662,-0.9571874503968872 0.8265046065721662,-1.6275159288580616 v-20.998671272060903 a1.6400342585670606,1.8787033187914062 0 0 0 -2.373119192182875,-1.6839959336951449 c-4.314172396942624,2.486606528748436 -8.485620293535266,3.6340424164912886 -13.147521473148752,3.6340424164912886 c-7.185529844892707,0 -10.39293861639411,-3.7365982147480974 -10.39293861639411,-12.113474721637626 V153.10540258599897 h24.647223714984086 c0.9056518294935194,0 1.6335467812784255,-0.8442274407227206 1.6335467812784255,-1.8801896347081717 V129.1757163260768 c0,-1.035962193985451 -0.7278949517849062,-1.8801896347081717 -1.6335467812784255,-1.8801896347081717 m85.87084438329525,0.11147369375740152 v-3.5448634614853667 c0,-10.430965103859247 3.490262781285913,-15.081647607418036 11.32064786866899,-15.081647607418036 c4.670983647817578,0 8.42074552064891,1.0627158804872272 12.62073831731155,2.6679370705938084 a1.6374392676516065,1.8757306869578754 0 0 0 2.153842459826995,-1.7865517319519542 V88.03895069776213 a1.6348442767361526,1.8727580551243448 0 0 0 -1.1573659482925778,-1.7984422592860771 c-4.437434465426699,-1.5130696032671291 -10.11527458844051,-3.0662697362869227 -18.6164648274685,-3.0662697362869227 c-20.688565073458687,0 -31.622559295724997,13.347116932552867 -31.622559295724997,38.5788159355615 v5.429512043943833 h-10.758832335473153 a1.6478192313134234,1.8876212142919981 0 0 0 -1.6452242403979693,1.8787033187914062 v22.163942950804945 c0,1.0344758780686858 0.7395724109044501,1.8816759506249372 1.6452242403979693,1.8816759506249372 h10.758832335473153 v88.00773806351006 c0,1.035962193985451 0.7304899427003602,1.8801896347081717 1.6335467812784255,1.8801896347081717 h22.396069095827553 c0.9043543340357925,0 1.6413317540247876,-0.8442274407227206 1.6413317540247876,-1.8801896347081717 V153.10540258599897 h20.913031787645476 l32.035162851282216,87.98395700884181 c-3.6381772634668024,9.244885002280492 -7.214074744962703,11.083457791319235 -12.095252656932072,11.083457791319235 c-3.9469811824058527,0 -8.101561638048041,-1.3495748524229403 -12.350859262104313,-4.011566659349687 a1.6737691404679658,1.917347532627305 0 0 0 -1.3039829350157401,-0.13971369617594329 c-0.42817350104994495,0.1724126463447811 -0.7875797428403529,0.5365600459522923 -0.9692291069221477,1.0121811393172058 l-7.590348427703563,19.07835110760007 a1.6283567994475165,1.865326475540518 0 0 0 0.7032425380880906,2.427153892077821 c7.925102255797156,4.9167330526597866 15.08078970516214,7.015411127132465 23.920626258656906,7.015411127132465 c16.539174599647406,0 25.68003009933486,-8.8242575978359 33.74007188273564,-32.56518173632888 l38.85739396801134,-115.02301616663712 a1.6400342585670606,1.8787033187914062 0 0 0 -1.5206646764561667,-2.560922324586702 h-23.315993375356076 a1.6478192313134234,1.8876212142919981 0 0 0 -1.553102062899345,1.2603958974170195 L880.8307413871997,206.82085981789885 l-26.162698409609344,-78.20697090835934 a1.6335467812784255,1.8712717392075788 0 0 0 -1.5297471446602573,-1.208374840330232 zm-49.782305722073566,-0.11147369375740152 h-22.39866408674302 c-0.9030568385780653,0 -1.6400342585670606,0.8442274407227206 -1.6400342585670606,1.8801896347081717 v111.93742432343225 c0,1.035962193985451 0.7369774199889959,1.8801896347081717 1.6400342585670606,1.8801896347081717 h22.39866408674302 c0.9030568385780653,0 1.6413317540247876,-0.8442274407227206 1.6413317540247876,-1.8801896347081717 V129.1757163260768 c0,-1.035962193985451 -0.7395724109044501,-1.8801896347081717 -1.6413317540247876,-1.8801896347081717 m-11.084503695362656,-50.96874541771748 c-8.873571435395672,0 -16.073373730323375,8.228244915212992 -16.073373730323375,18.391673154054477 c0,10.170859818425308 7.199802294927707,18.40950894505566 16.073373730323375,18.40950894505566 c8.86967894902249,0 16.06299376666156,-8.23864912663035 16.06299376666156,-18.40950894505566 c0,-10.163428238841483 -7.193314817639069,-18.391673154054477 -16.06299376666156,-18.391673154054477 m197.1362698652254,62.10273795020674 H947.0419345950138 v5.994312092314669 h4.103978132790833 c2.0474478322933716,0 3.2696885534723044,-1.1474358877428523 3.2696885534723044,-2.9978992041157166 c0,-1.9515327987129087 -1.2222407211789328,-2.996412888198951 -3.2696885534723044,-2.996412888198951 m2.658568192882838,8.550775469151073 l4.459491888208061,7.150665875558112 h-3.758844341035423 l-4.013153450749936,-6.557625824768738 h-3.451337917554099 v6.557625824768738 h-3.1451289895305026 V135.18043262980885 h7.376261677178591 c3.844479041245412,0 6.373297688355539,2.2517686138995097 6.373297688355539,6.0433605175679235 c0,3.106400266039587 -1.5673745129343426,5.005912007665708 -3.8405865548722304,5.756501545632212 m-3.4941552676590932,-18.10927312986906 c-8.073016737978048,0 -14.182922848414986,7.3528048402382 -14.182922848414986,16.35542034808594 c0,8.998156560097446 6.065791264874215,16.252864549829134 14.101180634578176,16.252864549829134 c8.070421747062593,0 14.188112830245892,-7.348345892487903 14.188112830245892,-16.35542034808594 c0,-8.999642876014212 -6.072278742162851,-16.252864549829134 -14.106370616409086,-16.252864549829134 m-0.08174221383680769,34.41415873678498 c-8.86448896719158,0 -15.761974820468868,-8.155415435291491 -15.761974820468868,-18.058738388699037 c0,-9.90183663749078 6.98701303986046,-18.15088997553849 15.842419538847953,-18.15088997553849 c8.865786462649307,0 15.763272315926597,8.153929119374725 15.763272315926597,18.048334177281678 c0,9.90480926932431 -6.983120553487278,18.161294186955846 -15.843717034305678,18.161294186955846 " fill="#191414" id="svg_1" class="selected"/></g></svg>